<?xml version="1.0" encoding="UTF-8"?>
<!DOCTYPE svg PUBLIC "-//W3C//DTD SVG 1.1//EN" "http://www.w3.org/Graphics/SVG/1.1/DTD/svg11.dtd">
<!-- Creator: CorelDRAW -->
<svg xmlns="http://www.w3.org/2000/svg" xml:space="preserve" width="87.1189mm" height="34.2586mm" version="1.1" style="shape-rendering:geometricPrecision; text-rendering:geometricPrecision; image-rendering:optimizeQuality; fill-rule:evenodd; clip-rule:evenodd"
viewBox="0 0 8711.88 3425.86"
 xmlns:xlink="http://www.w3.org/1999/xlink"
 xmlns:xodm="http://www.corel.com/coreldraw/odm/2003">
 <defs>
  <style type="text/css">
   <![CDATA[
    .fil2 {fill:#032B44}
    .fil3 {fill:#34C759}
    .fil1 {fill:#032B44;fill-rule:nonzero}
    .fil0 {fill:#34C759;fill-rule:nonzero}
   ]]>
  </style>
 </defs>
 <g id="Layer_x0020_1">
  <metadata id="CorelCorpID_0Corel-Layer"/>
  <g id="_2691117199184">
   <g>
    <path class="fil0" d="M2396.32 2822.93l0 -400.24 -157.39 0 0 -74.63 402.96 0 0 74.63 -157.38 0 0 400.24 -88.19 0zm406.66 -277.46l236.08 0 0 72.59 -236.08 0 0 -72.59zm6.79 203.52l267.96 0 0 73.94 -356.15 0 0 -474.87 346.65 0 0 73.95 -258.46 0 0 326.98zm599.32 80.72c-36.18,0 -69.76,-5.99 -100.74,-17.97 -30.98,-11.99 -57.89,-28.95 -80.72,-50.88 -22.84,-21.94 -40.59,-47.83 -53.26,-77.68 -12.66,-29.84 -18.99,-62.41 -18.99,-97.68 0,-35.28 6.33,-67.84 18.99,-97.69 12.67,-29.85 30.53,-55.74 53.6,-77.67 23.06,-21.94 49.97,-38.9 80.72,-50.88 30.76,-11.99 64.45,-17.98 101.08,-17.98 38.89,0 74.4,6.67 106.51,20.01 32.11,13.34 59.24,33.13 81.4,59.36l-56.98 53.59c-17.19,-18.54 -36.41,-32.45 -57.66,-41.72 -21.26,-9.27 -44.32,-13.9 -69.2,-13.9 -24.87,0 -47.6,4.07 -68.18,12.21 -20.57,8.14 -38.44,19.67 -53.59,34.59 -15.15,14.93 -26.91,32.57 -35.27,52.92 -8.37,20.35 -12.55,42.74 -12.55,67.16 0,24.42 4.18,46.81 12.55,67.16 8.36,20.35 20.12,37.99 35.27,52.91 15.15,14.92 33.02,26.46 53.59,34.6 20.58,8.14 43.31,12.21 68.18,12.21 24.88,0 47.94,-4.64 69.2,-13.91 21.25,-9.27 40.47,-23.4 57.66,-42.4l56.98 54.27c-22.16,25.78 -49.29,45.45 -81.4,59.02 -32.11,13.57 -67.84,20.35 -107.19,20.35zm620.36 -481.65l88.19 0 0 474.87 -88.19 0 0 -474.87zm-245.57 474.87l-88.19 0 0 -474.87 88.19 0 0 474.87zm252.35 -203.51l-259.82 0 0 -75.3 259.82 0 0 75.3zm222.16 203.51l0 -474.87 72.58 0 297.81 365.65 -35.95 0 0 -365.65 87.51 0 0 474.87 -72.59 0 -297.81 -365.65 35.96 0 0 365.65 -87.51 0zm785.21 6.78c-37.09,0 -71.23,-6.1 -102.44,-18.31 -31.2,-12.21 -58.34,-29.29 -81.4,-51.22 -23.07,-21.93 -40.93,-47.71 -53.6,-77.34 -12.66,-29.62 -18.99,-62.07 -18.99,-97.34 0,-35.28 6.33,-67.73 18.99,-97.35 12.67,-29.62 30.53,-55.4 53.6,-77.34 23.06,-21.93 50.2,-39 81.4,-51.21 31.21,-12.21 65.13,-18.32 101.76,-18.32 37.08,0 71.11,6.11 102.09,18.32 30.98,12.21 58.01,29.28 81.07,51.21 23.07,21.94 40.93,47.72 53.59,77.34 12.67,29.62 19,62.07 19,97.35 0,35.27 -6.33,67.84 -19,97.68 -12.66,29.85 -30.52,55.63 -53.59,77.34 -23.06,21.71 -50.09,38.67 -81.07,50.88 -30.98,12.21 -64.78,18.31 -101.41,18.31zm-0.68 -77.33c23.97,0 46.13,-4.07 66.48,-12.21 20.35,-8.14 37.99,-19.79 52.91,-34.94 14.93,-15.15 26.57,-32.79 34.94,-52.91 8.37,-20.13 12.55,-42.4 12.55,-66.82 0,-24.42 -4.18,-46.7 -12.55,-66.82 -8.37,-20.13 -20.01,-37.77 -34.94,-52.92 -14.92,-15.15 -32.56,-26.79 -52.91,-34.93 -20.35,-8.14 -42.51,-12.21 -66.48,-12.21 -23.97,0 -46.02,4.07 -66.14,12.21 -20.13,8.14 -37.77,19.78 -52.92,34.93 -15.15,15.15 -26.91,32.79 -35.27,52.92 -8.37,20.12 -12.55,42.4 -12.55,66.82 0,23.97 4.18,46.13 12.55,66.48 8.36,20.35 20.01,38.1 34.93,53.25 14.93,15.15 32.57,26.8 52.92,34.94 20.35,8.14 42.51,12.21 66.48,12.21zm362.58 70.55l0 -474.87 88.19 0 0 400.25 248.28 0 0 74.62 -336.47 0zm633.25 6.78c-37.09,0 -71.23,-6.1 -102.44,-18.31 -31.2,-12.21 -58.34,-29.29 -81.4,-51.22 -23.07,-21.93 -40.93,-47.71 -53.6,-77.34 -12.66,-29.62 -18.99,-62.07 -18.99,-97.34 0,-35.28 6.33,-67.73 18.99,-97.35 12.67,-29.62 30.53,-55.4 53.6,-77.34 23.06,-21.93 50.2,-39 81.4,-51.21 31.21,-12.21 65.13,-18.32 101.76,-18.32 37.08,0 71.11,6.11 102.09,18.32 30.98,12.21 58.01,29.28 81.07,51.21 23.07,21.94 40.93,47.72 53.59,77.34 12.67,29.62 19,62.07 19,97.35 0,35.27 -6.33,67.84 -19,97.68 -12.66,29.85 -30.52,55.63 -53.59,77.34 -23.06,21.71 -50.09,38.67 -81.07,50.88 -30.98,12.21 -64.78,18.31 -101.41,18.31zm-0.68 -77.33c23.97,0 46.13,-4.07 66.48,-12.21 20.35,-8.14 37.99,-19.79 52.91,-34.94 14.93,-15.15 26.57,-32.79 34.94,-52.91 8.37,-20.13 12.55,-42.4 12.55,-66.82 0,-24.42 -4.18,-46.7 -12.55,-66.82 -8.37,-20.13 -20.01,-37.77 -34.94,-52.92 -14.92,-15.15 -32.56,-26.79 -52.91,-34.93 -20.35,-8.14 -42.51,-12.21 -66.48,-12.21 -23.97,0 -46.02,4.07 -66.14,12.21 -20.13,8.14 -37.77,19.78 -52.92,34.93 -15.15,15.15 -26.91,32.79 -35.27,52.92 -8.37,20.12 -12.55,42.4 -12.55,66.82 0,23.97 4.18,46.13 12.55,66.48 8.36,20.35 20.01,38.1 34.93,53.25 14.93,15.15 32.57,26.8 52.92,34.94 20.35,8.14 42.51,12.21 66.48,12.21zm584.41 77.33c-37.09,0 -71.12,-5.99 -102.1,-17.97 -30.98,-11.99 -58,-28.95 -81.06,-50.88 -23.07,-21.94 -40.93,-47.83 -53.6,-77.68 -12.66,-29.84 -18.99,-62.41 -18.99,-97.68 0,-35.28 6.33,-67.84 18.99,-97.69 12.67,-29.85 30.64,-55.74 53.93,-77.67 23.3,-21.94 50.54,-38.9 81.75,-50.88 31.2,-11.99 65.35,-17.98 102.43,-17.98 40.26,0 76.55,6.56 108.88,19.67 32.34,13.12 59.59,32.34 81.75,57.67l-55.63 54.27c-18.54,-18.55 -38.55,-32.23 -60.03,-41.05 -21.49,-8.81 -45.12,-13.22 -70.89,-13.22 -24.88,0 -47.94,4.07 -69.2,12.21 -21.26,8.14 -39.57,19.67 -54.95,34.59 -15.38,14.93 -27.25,32.57 -35.61,52.92 -8.37,20.35 -12.55,42.74 -12.55,67.16 0,23.97 4.18,46.13 12.55,66.48 8.36,20.35 20.23,38.1 35.61,53.25 15.38,15.15 33.47,26.8 54.27,34.94 20.81,8.14 43.87,12.21 69.2,12.21 23.51,0 46.24,-3.73 68.17,-11.19 21.94,-7.47 42.85,-20.02 62.75,-37.65l50.2 65.8c-24.87,19.9 -53.7,34.93 -86.49,45.11 -32.79,10.18 -65.92,15.26 -99.38,15.26zm102.43 -71.9l0 -177.74 83.44 0 0 189.27 -83.44 -11.53zm212.66 65.12l0 -474.87 88.19 0 0 474.87 -88.19 0zm311.01 -277.46l236.08 0 0 72.59 -236.08 0 0 -72.59zm6.79 203.52l267.96 0 0 73.94 -356.15 0 0 -474.87 346.65 0 0 73.95 -258.46 0 0 326.98zm526.74 80.72c-37.09,0 -72.59,-5.31 -106.51,-15.94 -33.92,-10.63 -60.83,-24.31 -80.73,-41.04l30.53 -68.52c19,14.93 42.51,27.36 70.55,37.31 28.04,9.95 56.76,14.93 86.16,14.93 24.87,0 45,-2.71 60.37,-8.14 15.38,-5.43 26.68,-12.78 33.92,-22.05 7.24,-9.27 10.86,-19.79 10.86,-31.54 0,-14.48 -5.21,-26.12 -15.61,-34.94 -10.4,-8.82 -23.85,-15.83 -40.36,-21.03 -16.51,-5.2 -34.82,-10.06 -54.95,-14.59 -20.13,-4.52 -40.25,-9.83 -60.38,-15.94 -20.12,-6.1 -38.44,-14.02 -54.94,-23.74 -16.51,-9.72 -29.97,-22.73 -40.37,-39.01 -10.4,-16.28 -15.6,-37.08 -15.6,-62.41 0,-25.78 6.9,-49.41 20.69,-70.89 13.79,-21.48 34.82,-38.67 63.09,-51.56 28.26,-12.89 64.11,-19.33 107.52,-19.33 28.49,0 56.76,3.62 84.8,10.85 28.04,7.24 52.46,17.64 73.26,31.21l-27.81 68.52c-21.25,-12.67 -43.19,-22.05 -65.8,-28.16 -22.61,-6.1 -44.32,-9.15 -65.13,-9.15 -24.42,0 -44.2,2.93 -59.35,8.81 -15.15,5.88 -26.24,13.57 -33.25,23.07 -7.01,9.5 -10.51,20.35 -10.51,32.56 0,14.47 5.09,26.12 15.26,34.94 10.18,8.82 23.52,15.71 40.03,20.69 16.51,4.97 34.93,9.84 55.29,14.58 20.35,4.75 40.59,10.07 60.71,15.95 20.13,5.87 38.44,13.56 54.95,23.06 16.51,9.5 29.85,22.39 40.02,38.67 10.18,16.28 15.27,36.86 15.27,61.73 0,25.33 -6.9,48.73 -20.69,70.21 -13.8,21.49 -34.94,38.67 -63.43,51.56 -28.49,12.89 -64.45,19.33 -107.86,19.33z"/>
    <path class="fil1" d="M2291.56 2122.63l0 -831.65 342.16 0c73.66,0 136.83,11.88 189.5,35.64 52.67,23.76 93.26,57.82 121.78,102.18 28.51,44.35 42.77,97.02 42.77,158.01 0,60.99 -14.26,113.46 -42.77,157.42 -28.52,43.96 -69.11,77.62 -121.78,100.99 -52.67,23.36 -115.84,35.04 -189.5,35.04l-256.62 0 68.91 -70.09 0 312.46 -154.45 0zm544.13 0l-210.28 -301.77 165.14 0 211.47 301.77 -166.33 0zm-389.68 -295.83l-68.91 -73.66 249.49 0c68.12,0 119.41,-14.65 153.86,-43.96 34.45,-29.3 51.68,-70.09 51.68,-122.37 0,-53.07 -17.23,-93.86 -51.68,-122.37 -34.45,-28.51 -85.74,-42.77 -153.86,-42.77l-249.49 0 68.91 -76.04 0 481.17zm596.41 295.83l374.24 -831.65 152.07 0 375.43 831.65 -161.57 0 -321.97 -749.67 61.78 0 -320.78 749.67 -159.2 0zm172.27 -192.47l41.58 -121.18 449.09 0 41.59 121.18 -532.26 0zm982.54 204.35c-53.07,0 -101.98,-10.3 -146.73,-30.89 -44.75,-20.59 -81.38,-50.29 -109.89,-89.1l87.91 -105.74c22.97,31.68 48.12,55.44 75.44,71.28 27.33,15.84 57.23,23.76 89.7,23.76 86.34,0 129.5,-51.08 129.5,-153.26l0 -430.08 -295.83 0 0 -129.5 450.28 0 0 551.27c0,98.21 -23.96,171.47 -71.88,219.79 -47.91,48.31 -117.42,72.47 -208.5,72.47zm639.18 -497.8l413.45 0 0 127.12 -413.45 0 0 -127.12zm11.88 356.42l469.29 0 0 129.5 -623.74 0 0 -831.65 607.1 0 0 129.5 -452.65 0 0 572.65zm1026.49 141.38c-63.36,0 -122.17,-10.49 -176.43,-31.48 -54.25,-20.99 -101.38,-50.69 -141.38,-89.11 -39.99,-38.41 -71.08,-83.76 -93.26,-136.03 -22.18,-52.28 -33.26,-109.3 -33.26,-171.08 0,-61.78 11.08,-118.81 33.26,-171.09 22.18,-52.27 53.46,-97.62 93.86,-136.03 40.39,-38.41 87.52,-68.12 141.38,-89.11 53.86,-20.99 112.87,-31.48 177.02,-31.48 68.12,0 130.29,11.68 186.53,35.05 56.23,23.36 103.76,58.02 142.57,103.95l-99.8 93.86c-30.1,-32.47 -63.76,-56.83 -100.99,-73.06 -37.22,-16.24 -77.62,-24.36 -121.18,-24.36 -43.56,0 -83.36,7.13 -119.4,21.39 -36.04,14.25 -67.33,34.45 -93.86,60.59 -26.53,26.13 -47.13,57.02 -61.78,92.67 -14.65,35.64 -21.98,74.84 -21.98,117.62 0,42.77 7.33,81.97 21.98,117.61 14.65,35.65 35.25,66.54 61.78,92.67 26.53,26.14 57.82,46.34 93.86,60.6 36.04,14.25 75.84,21.38 119.4,21.38 43.56,0 83.96,-8.12 121.18,-24.35 37.23,-16.24 70.89,-40.99 100.99,-74.26l99.8 95.05c-38.81,45.14 -86.34,79.6 -142.57,103.36 -56.24,23.76 -118.81,35.64 -187.72,35.64zm637.99 -11.88l0 -700.96 -275.63 0 0 -130.69 705.72 0 0 130.69 -275.64 0 0 700.96 -154.45 0zm546.52 0l0 -831.65 342.16 0c73.66,0 136.83,11.88 189.5,35.64 52.67,23.76 93.26,57.82 121.78,102.18 28.51,44.35 42.77,97.02 42.77,158.01 0,60.99 -14.26,113.46 -42.77,157.42 -28.52,43.96 -69.11,77.62 -121.78,100.99 -52.67,23.36 -115.84,35.04 -189.5,35.04l-256.62 0 68.91 -70.09 0 312.46 -154.45 0zm544.13 0l-210.28 -301.77 165.14 0 211.47 301.77 -166.33 0zm-389.68 -295.83l-68.91 -73.66 249.49 0c68.12,0 119.41,-14.65 153.86,-43.96 34.45,-29.3 51.68,-70.09 51.68,-122.37 0,-53.07 -17.23,-93.86 -51.68,-122.37 -34.45,-28.51 -85.74,-42.77 -153.86,-42.77l-249.49 0 68.91 -76.04 0 481.17zm596.41 295.83l374.24 -831.65 152.07 0 375.43 831.65 -161.57 0 -321.97 -749.67 61.78 0 -320.78 749.67 -159.2 0zm172.27 -192.47l41.58 -121.18 449.09 0 41.59 121.18 -532.26 0z"/>
    <g>
     <polygon class="fil2" points="618.5,2837.68 1001.98,1406.51 2770.98,11.35 3325.75,11.35 3138.83,708.93 2093.42,708.93 1523.02,2837.68 "/>
     <g>
      <g>
       <path class="fil3" d="M2275.59 4.87l-84.83 -4.87 -254.11 6.85 12.59 37.36 -408.18 229.26c-139.52,77.86 -272.67,154.35 -409.02,228.23 -261.96,141.97 -568.88,342.18 -940.26,325.44 212.05,131.5 846.32,-221.89 995.12,-307.27 144.69,-83.01 286.46,-153.24 431.23,-233.48l323.74 -175.03c116.67,-63.59 51.14,-38.51 75.72,-73.72l170.73 8.59c-25.3,64.97 -73.95,100.39 -98.04,161.06 -27.56,-18.34 -10.56,-16.06 -35.64,-35.86 -53.39,34.67 -157.19,76.95 -215.86,105.15 -322.83,155.2 -1044.05,532.42 -1351.72,576.95 -44.48,6.44 -94.37,14.26 -137.87,16.83 -44.29,2.61 -102.99,-9.9 -136.75,-0.83 201.09,48.98 350.86,16.49 537.31,-47.35 187.97,-64.35 673.76,-291.54 870.04,-385.76l424.06 -193.1 29.77 62.36c34.02,-37.65 181.57,-253.43 201.97,-300.81z"/>
       <path class="fil3" d="M232.43 904.28c276.06,130.88 722.11,-65.81 966.28,-158.67l661.51 -252.25c25.62,-9.71 92.89,-32.28 112.68,-44.1 23.59,-14.08 51.68,-57.7 59.21,-82.91 -271.3,117.6 -564.46,222.55 -846.58,337.79 -209.04,85.4 -454.61,186.58 -687.72,205.72 -117.17,9.62 -158.42,2.31 -265.38,-5.58z"/>
       <path class="fil3" d="M233.06 24.84c-36.55,21.15 -124.34,185.72 -152.1,243.71 -207.54,433.77 -0.99,589.7 447.68,358.3 186.47,-96.17 334.35,-202.7 476.04,-318.51 34.29,-28.03 242.54,-191.82 355.4,-285.95l-73.99 1.99c-192.63,165.11 -550.15,460.19 -738.8,556.04 -126.28,64.14 -489.79,238.58 -519.54,-4.2 -28.05,-228.81 199.12,-493.83 205.31,-551.38z"/>
       <path class="fil3" d="M251.92 942.28c227.42,139.43 640.32,14.45 871.23,-59.35l607.63 -186.07c91.24,-28.81 115.07,-23.7 152.04,-101.91 -58.98,7.23 -662.17,210.09 -773.03,246.12 -230.63,74.96 -600.07,181.78 -857.87,101.21z"/>
       <path class="fil3" d="M165.2 791.01c287.71,131.35 1000.34,-383.76 1296.62,-560.16l338.53 -220.33 -93.14 2.51c-21.72,13.79 -48.7,33.11 -88.48,60.18l-567.08 366.08c-220.45,141.1 -546.25,356.19 -886.45,351.72z"/>
       <path class="fil3" d="M132.94 756.97c298.74,45.34 589.93,-153.05 818.62,-307.12l340.66 -241.53c30.8,-22.56 183.65,-126.6 269.08,-191.35l-86.22 2.32 -545.51 398.9c-220.98,148.29 -453.85,316.44 -796.63,338.78z"/>
       <path class="fil3" d="M111.08 513.95c60.4,-197.17 245.3,-363.31 252.95,-415.04 -52.9,38.43 -147.35,178.54 -182.65,233.57 -49.4,77.02 -112.82,185.11 -116.35,292.7 6.28,4.91 11.08,8.59 15.29,11.86 6.78,-38.1 15.82,-78.1 30.75,-123.09l0.01 0zm-16.62 134.52c4.35,3.7 9.23,8.07 15.73,14.11 8.45,-37.8 25.4,-80.62 40.31,-117.92l0.01 0c34.24,-87.54 90.14,-175.37 143.17,-238.57l97.25 -115.49c15.15,-19.87 31.83,-33.77 41.91,-53.16 -39.64,13.52 -77.84,73.01 -103.81,102.6 -81.94,93.29 -160.05,192.34 -206.91,311.18l-14.47 41.93c-5.43,18.43 -9.78,36.86 -13.19,55.32z"/>
       <path class="fil3" d="M138.09 674.42c4.71,-2.15 8.45,-4.79 11.51,-7.89 9.82,-37.13 27.83,-80.25 43.08,-109.48l0.23 0.05c27.69,-56.74 65.81,-106.97 103.01,-155.59 11.84,-15.49 10.99,-17.89 24.01,-31.78 14.37,-15.35 13.31,-11.27 26.67,-28.37 73.48,-94 138.47,-122.21 151.98,-168.57 -64.29,30.15 -254.64,243.68 -332.23,386.2 -14.95,33.68 -25.66,67.43 -33.05,101.21 0.69,5.47 2.24,10.26 4.79,14.22z"/>
       <path class="fil3" d="M175.05 679.67c25.45,-14.04 25.98,-38.19 42.33,-69.72 11.26,-21.67 26.96,-50.09 40.53,-70.47 52.41,-78.66 201.14,-233.51 258.83,-277.57 21.15,-16.15 36.62,-20.01 47.86,-52.71 -50,27.31 -80.79,62.98 -122.76,97.98 -43.53,36.26 -75.28,67.78 -110.43,111.5 -19.64,24.42 -33.14,32.71 -51.45,59.44 -15.19,22.18 -28.84,37.24 -47.14,64.07l-11.78 20.98 -0.01 0.03 -17.75 31.63c-13.49,27.04 -22.92,54.44 -29.1,83.52 0.3,0.37 0.59,0.8 0.87,1.32z"/>
       <path class="fil3" d="M206.11 676.95c39.46,-1.98 32.61,-18.6 52.92,-52.91 13.77,-23.28 33.37,-49.77 45.8,-65.21 78.49,-97.51 108.54,-109.98 158.1,-165.54 37.86,-42.44 148.67,-107.07 167.51,-147.6 -60.94,29.65 -132.24,96.87 -191,142.7 -26.7,20.82 -26.37,28.09 -49.1,52.34l-103.73 109.15c-26.34,30.89 -61.16,83.65 -80.5,127.07z"/>
       <path class="fil3" d="M49.01 578.38c16.41,-26.84 19.91,-86.47 43.42,-150.29 31.49,-85.5 86.84,-180.83 135.51,-253.32 41.59,-61.94 65.32,-76.2 70.96,-113.34 -41.92,31.34 -126.88,165.59 -160.75,227.3 -50.22,91.52 -96.14,166.44 -89.14,289.65z"/>
      </g>
      <path class="fil3" d="M229.96 30.43l1012.3 -4.05c-131.8,115.09 -262.95,222.97 -392.81,317.45 -119.71,87.11 -699.71,499.37 -804.59,261.12 -48.19,-109.48 0.48,-323.34 182.29,-568.69l2.81 -5.83z"/>
     </g>
    </g>
   </g>
   <g>
    <path class="fil0" d="M1253.53 3362.77c-4.77,0 -8.78,-1.63 -12.03,-4.88 -3.25,-3.25 -4.88,-7.27 -4.88,-12.04 0,-5.42 1.85,-9.86 5.53,-13.33 3.69,-3.47 7.92,-5.2 12.69,-5.2 4.77,0 8.72,1.57 11.87,4.71 3.14,3.15 4.71,7.21 4.71,12.2 0,3.68 -0.81,6.88 -2.44,9.59 -1.62,2.71 -3.84,4.88 -6.66,6.51 -2.82,1.62 -5.75,2.44 -8.79,2.44zm74.96 0c-4.77,0 -8.78,-1.63 -12.03,-4.88 -3.25,-3.25 -4.88,-7.27 -4.88,-12.04 0,-5.42 1.85,-9.86 5.53,-13.33 3.69,-3.47 7.92,-5.2 12.69,-5.2 4.77,0 8.72,1.57 11.87,4.71 3.14,3.15 4.71,7.21 4.71,12.2 0,3.68 -0.81,6.88 -2.44,9.59 -1.62,2.71 -3.84,4.88 -6.66,6.51 -2.82,1.62 -5.75,2.44 -8.79,2.44zm74.96 0c-4.77,0 -8.78,-1.63 -12.03,-4.88 -3.25,-3.25 -4.88,-7.27 -4.88,-12.04 0,-5.42 1.85,-9.86 5.53,-13.33 3.69,-3.47 7.92,-5.2 12.69,-5.2 4.77,0 8.72,1.57 11.87,4.71 3.14,3.15 4.71,7.21 4.71,12.2 0,3.68 -0.81,6.88 -2.44,9.59 -1.62,2.71 -3.84,4.88 -6.66,6.51 -2.82,1.62 -5.75,2.44 -8.79,2.44zm143.26 0c-16.26,0 -30.41,-2.99 -42.44,-8.95 -12.03,-5.96 -21.25,-14.36 -27.65,-25.2 -6.39,-10.85 -9.59,-23.75 -9.59,-38.71 0,-19.51 4.12,-36.86 12.36,-52.04 8.24,-15.17 19.51,-27.15 33.82,-35.93 14.31,-8.79 30.47,-13.18 48.46,-13.18 15.18,0 28.3,2.88 39.36,8.62 11.06,5.75 19.68,14.04 25.86,24.88 6.18,10.84 9.26,23.85 9.26,39.03 0,3.47 -0.21,6.99 -0.65,10.57 -0.43,3.58 -0.97,6.99 -1.62,10.25l-149.94 0 2.93 -17.24 136.28 0 -9.44 6.5c2.17,-13.66 1.2,-25.15 -2.92,-34.47 -4.12,-9.33 -10.47,-16.43 -19.03,-21.3 -8.57,-4.88 -18.81,-7.32 -30.74,-7.32 -13.87,0 -26.23,3.41 -37.07,10.24 -10.84,6.83 -19.3,16.26 -25.37,28.3 -6.07,12.03 -9.11,26.07 -9.11,42.12 0,17.13 4.93,30.3 14.8,39.51 9.87,9.22 24.66,13.83 44.4,13.83 11.49,0 22.11,-1.9 31.87,-5.7 9.76,-3.79 17.78,-9.05 24.07,-15.77l10.4 16.59c-8.02,8.02 -18.05,14.25 -30.08,18.7 -12.03,4.44 -24.77,6.67 -38.22,6.67zm241.81 -174.01c15.39,0 28.02,2.98 37.89,8.95 9.86,5.96 16.69,14.58 20.49,25.85 3.79,11.28 4.06,24.72 0.81,40.33l-19.51 97.25 -23.09 0 19.51 -97.57c3.47,-16.91 1.68,-30.14 -5.37,-39.68 -7.04,-9.54 -19.46,-14.31 -37.24,-14.31 -18.21,0 -33.33,4.99 -45.37,14.96 -12.03,9.97 -20.11,24.93 -24.23,44.88l-18.21 91.72 -23.09 0 33.82 -170.75 22.12 0 -9.76 49.11 -4.88 -8.46c8.24,-14.74 18.92,-25.47 32.04,-32.19 13.12,-6.73 27.81,-10.09 44.07,-10.09zm171.55 237.1c-15.83,0 -30.24,-2.22 -43.25,-6.66 -13.01,-4.45 -23.96,-10.79 -32.85,-19.03l13.66 -17.56c6.94,6.93 15.99,12.46 27.15,16.58 11.17,4.12 23.48,6.18 36.92,6.18 21.68,0 38.49,-4.98 50.41,-14.96 11.93,-9.97 19.84,-25.37 23.74,-46.18l9.11 -44.89 8.78 -27.97 3.58 -29.27 10.08 -51.71 22.12 0 -29.92 149.93c-5.86,30.14 -16.92,51.93 -33.18,65.38 -16.26,13.44 -38.38,20.16 -66.35,20.16zm11.39 -71.22c-14.96,0 -28.14,-2.82 -39.52,-8.46 -11.38,-5.64 -20.22,-13.61 -26.51,-23.91 -6.29,-10.3 -9.43,-22.49 -9.43,-36.59 0,-13.87 2.39,-26.67 7.16,-38.37 4.77,-11.71 11.49,-21.96 20.16,-30.74 8.67,-8.78 18.97,-15.61 30.9,-20.49 11.92,-4.88 25.04,-7.32 39.35,-7.32 13.66,0 25.8,2.39 36.43,7.16 10.62,4.77 19.03,11.92 25.21,21.46 6.18,9.54 9.26,21.69 9.26,36.43 0.22,18.65 -3.46,35.61 -11.05,50.9 -7.59,15.29 -18.33,27.43 -32.2,36.43 -13.88,9 -30.47,13.5 -49.76,13.5zm4.55 -20.49c14.31,0 27.05,-3.26 38.22,-9.76 11.16,-6.51 20,-15.45 26.5,-26.83 6.51,-11.39 9.76,-24.34 9.76,-38.87 0,-15.61 -4.99,-27.81 -14.96,-36.59 -9.98,-8.78 -23.85,-13.17 -41.63,-13.17 -14.31,0 -27.11,3.25 -38.38,9.75 -11.28,6.51 -20.11,15.45 -26.51,26.84 -6.39,11.38 -9.59,24.34 -9.59,38.86 0,15.61 4.98,27.81 14.96,36.59 9.97,8.78 23.85,13.18 41.63,13.18zm149.77 26.99l33.82 -170.75 23.09 0 -33.82 170.75 -23.09 0zm55.29 -208.48c-4.56,0 -8.3,-1.52 -11.22,-4.55 -2.93,-3.04 -4.39,-6.62 -4.39,-10.74 0,-4.77 1.68,-8.89 5.04,-12.35 3.36,-3.47 7.64,-5.21 12.84,-5.21 4.56,0 8.35,1.41 11.39,4.23 3.03,2.82 4.55,6.4 4.55,10.73 0,5.21 -1.73,9.49 -5.2,12.85 -3.47,3.36 -7.81,5.04 -13.01,5.04zm155.62 36.1c15.39,0 28.02,2.98 37.89,8.95 9.86,5.96 16.69,14.58 20.49,25.85 3.79,11.28 4.06,24.72 0.81,40.33l-19.51 97.25 -23.09 0 19.51 -97.57c3.47,-16.91 1.68,-30.14 -5.37,-39.68 -7.04,-9.54 -19.46,-14.31 -37.24,-14.31 -18.21,0 -33.33,4.99 -45.37,14.96 -12.03,9.97 -20.11,24.93 -24.23,44.88l-18.21 91.72 -23.09 0 33.82 -170.75 22.12 0 -9.76 49.11 -4.88 -8.46c8.24,-14.74 18.92,-25.47 32.04,-32.19 13.12,-6.73 27.81,-10.09 44.07,-10.09zm186.51 174.01c-16.26,0 -30.41,-2.99 -42.44,-8.95 -12.03,-5.96 -21.25,-14.36 -27.65,-25.2 -6.39,-10.85 -9.59,-23.75 -9.59,-38.71 0,-19.51 4.12,-36.86 12.36,-52.04 8.24,-15.17 19.51,-27.15 33.82,-35.93 14.31,-8.79 30.47,-13.18 48.46,-13.18 15.18,0 28.3,2.88 39.36,8.62 11.06,5.75 19.68,14.04 25.86,24.88 6.18,10.84 9.26,23.85 9.26,39.03 0,3.47 -0.21,6.99 -0.65,10.57 -0.43,3.58 -0.97,6.99 -1.62,10.25l-149.94 0 2.93 -17.24 136.28 0 -9.44 6.5c2.17,-13.66 1.2,-25.15 -2.92,-34.47 -4.12,-9.33 -10.47,-16.43 -19.03,-21.3 -8.57,-4.88 -18.81,-7.32 -30.74,-7.32 -13.87,0 -26.23,3.41 -37.07,10.24 -10.84,6.83 -19.3,16.26 -25.37,28.3 -6.07,12.03 -9.11,26.07 -9.11,42.12 0,17.13 4.93,30.3 14.8,39.51 9.87,9.22 24.66,13.83 44.4,13.83 11.49,0 22.11,-1.9 31.87,-5.7 9.76,-3.79 17.78,-9.05 24.07,-15.77l10.4 16.59c-8.02,8.02 -18.05,14.25 -30.08,18.7 -12.03,4.44 -24.77,6.67 -38.22,6.67zm202.45 0c-16.26,0 -30.41,-2.99 -42.44,-8.95 -12.03,-5.96 -21.25,-14.36 -27.65,-25.2 -6.39,-10.85 -9.59,-23.75 -9.59,-38.71 0,-19.51 4.12,-36.86 12.36,-52.04 8.24,-15.17 19.51,-27.15 33.82,-35.93 14.31,-8.79 30.47,-13.18 48.46,-13.18 15.18,0 28.3,2.88 39.36,8.62 11.06,5.75 19.68,14.04 25.86,24.88 6.18,10.84 9.26,23.85 9.26,39.03 0,3.47 -0.21,6.99 -0.65,10.57 -0.43,3.58 -0.97,6.99 -1.62,10.25l-149.94 0 2.93 -17.24 136.28 0 -9.44 6.5c2.17,-13.66 1.2,-25.15 -2.92,-34.47 -4.12,-9.33 -10.47,-16.43 -19.03,-21.3 -8.57,-4.88 -18.81,-7.32 -30.74,-7.32 -13.87,0 -26.23,3.41 -37.07,10.24 -10.84,6.83 -19.3,16.26 -25.37,28.3 -6.07,12.03 -9.11,26.07 -9.11,42.12 0,17.13 4.93,30.3 14.8,39.51 9.87,9.22 24.66,13.83 44.4,13.83 11.49,0 22.11,-1.9 31.87,-5.7 9.76,-3.79 17.78,-9.05 24.07,-15.77l10.4 16.59c-8.02,8.02 -18.05,14.25 -30.08,18.7 -12.03,4.44 -24.77,6.67 -38.22,6.67zm124.4 -1.63l33.82 -170.75 22.12 0 -9.76 50.41 -2.6 -8.78c7.59,-14.96 17.62,-25.91 30.08,-32.85 12.47,-6.94 28.03,-10.41 46.68,-10.41l-4.23 22.44c-1.09,0 -2.12,-0.05 -3.09,-0.16 -0.98,-0.11 -2.12,-0.16 -3.42,-0.16 -18.21,0 -33.23,5.26 -45.04,15.77 -11.82,10.52 -19.9,26.4 -24.23,47.65l-17.24 86.84 -23.09 0zm133.83 0l33.82 -170.75 23.09 0 -33.82 170.75 -23.09 0zm55.29 -208.48c-4.56,0 -8.3,-1.52 -11.22,-4.55 -2.93,-3.04 -4.39,-6.62 -4.39,-10.74 0,-4.77 1.68,-8.89 5.04,-12.35 3.36,-3.47 7.64,-5.21 12.84,-5.21 4.56,0 8.35,1.41 11.39,4.23 3.03,2.82 4.55,6.4 4.55,10.73 0,5.21 -1.73,9.49 -5.2,12.85 -3.47,3.36 -7.81,5.04 -13.01,5.04zm155.62 36.1c15.39,0 28.02,2.98 37.89,8.95 9.86,5.96 16.69,14.58 20.49,25.85 3.79,11.28 4.06,24.72 0.81,40.33l-19.51 97.25 -23.09 0 19.51 -97.57c3.47,-16.91 1.68,-30.14 -5.37,-39.68 -7.04,-9.54 -19.46,-14.31 -37.24,-14.31 -18.21,0 -33.33,4.99 -45.37,14.96 -12.03,9.97 -20.11,24.93 -24.23,44.88l-18.21 91.72 -23.09 0 33.82 -170.75 22.12 0 -9.76 49.11 -4.88 -8.46c8.24,-14.74 18.92,-25.47 32.04,-32.19 13.12,-6.73 27.81,-10.09 44.07,-10.09zm171.55 237.1c-15.83,0 -30.24,-2.22 -43.25,-6.66 -13.01,-4.45 -23.96,-10.79 -32.85,-19.03l13.66 -17.56c6.94,6.93 15.99,12.46 27.15,16.58 11.17,4.12 23.48,6.18 36.92,6.18 21.68,0 38.49,-4.98 50.41,-14.96 11.93,-9.97 19.84,-25.37 23.74,-46.18l9.11 -44.89 8.78 -27.97 3.58 -29.27 10.08 -51.71 22.12 0 -29.92 149.93c-5.86,30.14 -16.92,51.93 -33.18,65.38 -16.26,13.44 -38.38,20.16 -66.35,20.16zm11.39 -71.22c-14.96,0 -28.14,-2.82 -39.52,-8.46 -11.38,-5.64 -20.22,-13.61 -26.51,-23.91 -6.29,-10.3 -9.43,-22.49 -9.43,-36.59 0,-13.87 2.39,-26.67 7.16,-38.37 4.77,-11.71 11.49,-21.96 20.16,-30.74 8.67,-8.78 18.97,-15.61 30.9,-20.49 11.92,-4.88 25.04,-7.32 39.35,-7.32 13.66,0 25.8,2.39 36.43,7.16 10.62,4.77 19.03,11.92 25.21,21.46 6.18,9.54 9.26,21.69 9.26,36.43 0.22,18.65 -3.46,35.61 -11.05,50.9 -7.59,15.29 -18.33,27.43 -32.2,36.43 -13.88,9 -30.47,13.5 -49.76,13.5zm4.55 -20.49c14.31,0 27.05,-3.26 38.22,-9.76 11.16,-6.51 20,-15.45 26.5,-26.83 6.51,-11.39 9.76,-24.34 9.76,-38.87 0,-15.61 -4.99,-27.81 -14.96,-36.59 -9.98,-8.78 -23.85,-13.17 -41.63,-13.17 -14.31,0 -27.11,3.25 -38.38,9.75 -11.28,6.51 -20.11,15.45 -26.51,26.84 -6.39,11.38 -9.59,24.34 -9.59,38.86 0,15.61 4.98,27.81 14.96,36.59 9.97,8.78 23.85,13.18 41.63,13.18zm289.29 28.62c-9.76,0 -18.1,-2.12 -25.04,-6.35 -6.94,-4.22 -11.76,-10.24 -14.48,-18.05 -2.71,-7.8 -2.98,-17.13 -0.81,-27.97l31.22 -157.74 23.1 0 -31.23 156.77c-2.16,10.62 -1.35,18.86 2.44,24.72 3.8,5.85 10.79,8.78 20.98,8.78 4.77,0 9.43,-0.71 13.99,-2.12 4.55,-1.41 8.67,-3.63 12.36,-6.66l5.52 17.56c-5.42,4.12 -11.49,6.99 -18.21,8.62 -6.72,1.62 -13.33,2.44 -19.84,2.44zm-50.74 -153.19l3.58 -19.19 105.7 0 -3.9 19.19 -105.38 0zm251.9 -20.82c15.39,0 28.02,2.98 37.89,8.95 9.86,5.96 16.69,14.58 20.49,25.85 3.79,11.28 4.06,24.72 0.81,40.33l-19.51 97.25 -23.09 0 19.51 -97.57c3.47,-16.91 1.68,-30.14 -5.37,-39.68 -7.04,-9.54 -19.46,-14.31 -37.24,-14.31 -18.21,0 -33.33,4.99 -45.37,14.96 -12.03,9.97 -20.11,24.93 -24.23,44.88l-18.21 91.72 -23.09 0 48.13 -241.33 23.09 0 -24.06 119.69 -5.86 -8.46c8.24,-14.74 18.92,-25.47 32.04,-32.19 13.12,-6.73 27.81,-10.09 44.07,-10.09zm186.51 174.01c-16.26,0 -30.41,-2.99 -42.44,-8.95 -12.03,-5.96 -21.25,-14.36 -27.65,-25.2 -6.39,-10.85 -9.59,-23.75 -9.59,-38.71 0,-19.51 4.12,-36.86 12.36,-52.04 8.24,-15.17 19.51,-27.15 33.82,-35.93 14.31,-8.79 30.47,-13.18 48.46,-13.18 15.18,0 28.3,2.88 39.36,8.62 11.06,5.75 19.68,14.04 25.86,24.88 6.18,10.84 9.26,23.85 9.26,39.03 0,3.47 -0.21,6.99 -0.65,10.57 -0.43,3.58 -0.97,6.99 -1.62,10.25l-149.94 0 2.93 -17.24 136.28 0 -9.44 6.5c2.17,-13.66 1.2,-25.15 -2.92,-34.47 -4.12,-9.33 -10.47,-16.43 -19.03,-21.3 -8.57,-4.88 -18.81,-7.32 -30.74,-7.32 -13.87,0 -26.23,3.41 -37.07,10.24 -10.84,6.83 -19.3,16.26 -25.37,28.3 -6.07,12.03 -9.11,26.07 -9.11,42.12 0,17.13 4.93,30.3 14.8,39.51 9.87,9.22 24.66,13.83 44.4,13.83 11.49,0 22.11,-1.9 31.87,-5.7 9.76,-3.79 17.78,-9.05 24.07,-15.77l10.4 16.59c-8.02,8.02 -18.05,14.25 -30.08,18.7 -12.03,4.44 -24.77,6.67 -38.22,6.67zm213.51 -1.63l38.38 -192.54c3.25,-16.05 9.81,-28.46 19.67,-37.24 9.87,-8.78 22.83,-13.17 38.87,-13.17 6.94,0 13.44,0.97 19.52,2.92 6.07,1.95 11.05,4.66 14.96,8.13l-10.41 16.92c-6.07,-5.64 -14.1,-8.46 -24.07,-8.46 -9.97,0 -17.94,2.66 -23.9,7.97 -5.97,5.31 -10.14,13.82 -12.53,25.53l-5.2 25.04 -1.3 10.09 -30.9 154.81 -23.09 0zm-0.33 -151.56l3.58 -19.19 105.7 0 -3.9 19.19 -105.38 0zm184.25 153.19c-14.96,0 -27.38,-3.04 -37.24,-9.11 -9.87,-6.07 -16.64,-14.74 -20.33,-26.02 -3.68,-11.27 -4.12,-24.61 -1.3,-40l19.52 -97.25 23.09 0 -19.52 97.25c-3.25,16.91 -1.41,30.19 5.53,39.84 6.94,9.65 19.08,14.47 36.43,14.47 18,0 33.01,-4.99 45.04,-14.96 12.04,-9.97 20.12,-24.94 24.23,-44.88l18.22 -91.72 23.09 0 -34.15 170.75 -22.12 0 9.76 -49.11 4.88 8.13c-8.02,14.74 -18.59,25.53 -31.71,32.36 -13.12,6.83 -27.59,10.25 -43.42,10.25zm207.33 0c-9.76,0 -18.1,-2.12 -25.04,-6.35 -6.94,-4.22 -11.76,-10.24 -14.48,-18.05 -2.71,-7.8 -2.98,-17.13 -0.81,-27.97l31.22 -157.74 23.1 0 -31.23 156.77c-2.16,10.62 -1.35,18.86 2.44,24.72 3.8,5.85 10.79,8.78 20.98,8.78 4.77,0 9.43,-0.71 13.99,-2.12 4.55,-1.41 8.67,-3.63 12.36,-6.66l5.52 17.56c-5.42,4.12 -11.49,6.99 -18.21,8.62 -6.72,1.62 -13.33,2.44 -19.84,2.44zm-50.74 -153.19l3.58 -19.19 105.7 0 -3.9 19.19 -105.38 0zm206.04 153.19c-14.96,0 -27.38,-3.04 -37.24,-9.11 -9.87,-6.07 -16.64,-14.74 -20.33,-26.02 -3.68,-11.27 -4.12,-24.61 -1.3,-40l19.52 -97.25 23.09 0 -19.52 97.25c-3.25,16.91 -1.41,30.19 5.53,39.84 6.94,9.65 19.08,14.47 36.43,14.47 18,0 33.01,-4.99 45.04,-14.96 12.04,-9.97 20.12,-24.94 24.23,-44.88l18.22 -91.72 23.09 0 -34.15 170.75 -22.12 0 9.76 -49.11 4.88 8.13c-8.02,14.74 -18.59,25.53 -31.71,32.36 -13.12,6.83 -27.59,10.25 -43.42,10.25zm153.02 -1.63l33.82 -170.75 22.12 0 -9.76 50.41 -2.6 -8.78c7.59,-14.96 17.62,-25.91 30.08,-32.85 12.47,-6.94 28.03,-10.41 46.68,-10.41l-4.23 22.44c-1.09,0 -2.12,-0.05 -3.09,-0.16 -0.98,-0.11 -2.12,-0.16 -3.42,-0.16 -18.21,0 -33.23,5.26 -45.04,15.77 -11.82,10.52 -19.9,26.4 -24.23,47.65l-17.24 86.84 -23.09 0zm210.25 1.63c-16.26,0 -30.41,-2.99 -42.44,-8.95 -12.03,-5.96 -21.25,-14.36 -27.65,-25.2 -6.39,-10.85 -9.59,-23.75 -9.59,-38.71 0,-19.51 4.12,-36.86 12.36,-52.04 8.24,-15.17 19.51,-27.15 33.82,-35.93 14.31,-8.79 30.47,-13.18 48.46,-13.18 15.18,0 28.3,2.88 39.36,8.62 11.06,5.75 19.68,14.04 25.86,24.88 6.18,10.84 9.26,23.85 9.26,39.03 0,3.47 -0.21,6.99 -0.65,10.57 -0.43,3.58 -0.97,6.99 -1.62,10.25l-149.94 0 2.93 -17.24 136.28 0 -9.44 6.5c2.17,-13.66 1.2,-25.15 -2.92,-34.47 -4.12,-9.33 -10.47,-16.43 -19.03,-21.3 -8.57,-4.88 -18.81,-7.32 -30.74,-7.32 -13.87,0 -26.23,3.41 -37.07,10.24 -10.84,6.83 -19.3,16.26 -25.37,28.3 -6.07,12.03 -9.11,26.07 -9.11,42.12 0,17.13 4.93,30.3 14.8,39.51 9.87,9.22 24.66,13.83 44.4,13.83 11.49,0 22.11,-1.9 31.87,-5.7 9.76,-3.79 17.78,-9.05 24.07,-15.77l10.4 16.59c-8.02,8.02 -18.05,14.25 -30.08,18.7 -12.03,4.44 -24.77,6.67 -38.22,6.67zm209.61 -1.63l48.13 -241.33 23.09 0 -24.06 120.02 -10.41 33.82 -3.9 33.17 -10.74 54.32 -22.11 0zm94.97 1.63c-14.75,0 -27.38,-2.66 -37.89,-7.97 -10.52,-5.31 -18.54,-13.01 -24.07,-23.09 -5.53,-10.09 -8.4,-22.28 -8.62,-36.59 0,-15.62 2.17,-29.93 6.5,-42.94 4.34,-13.01 10.57,-24.23 18.71,-33.66 8.13,-9.43 17.88,-16.75 29.27,-21.95 11.38,-5.21 24.12,-7.81 38.21,-7.81 14.75,0 27.7,2.88 38.87,8.62 11.17,5.75 19.95,14.04 26.34,24.88 6.4,10.84 9.6,23.75 9.6,38.71 0,14.74 -2.39,28.29 -7.16,40.65 -4.77,12.36 -11.54,23.09 -20.32,32.2 -8.79,9.11 -19.03,16.21 -30.74,21.3 -11.71,5.1 -24.61,7.65 -38.7,7.65zm-0.33 -20.49c14.31,0 27,-3.42 38.05,-10.25 11.06,-6.83 19.79,-16.32 26.19,-28.46 6.39,-12.14 9.59,-25.91 9.59,-41.3 0,-16.92 -4.88,-30.03 -14.64,-39.36 -9.75,-9.32 -23.63,-13.98 -41.63,-13.98 -14.09,0 -26.72,3.47 -37.89,10.41 -11.16,6.93 -19.94,16.42 -26.34,28.45 -6.4,12.04 -9.6,25.86 -9.6,41.47 0,16.7 4.88,29.71 14.64,39.03 9.76,9.32 23.63,13.99 41.63,13.99zm209.93 20.49c-16.26,0 -30.41,-2.99 -42.44,-8.95 -12.03,-5.96 -21.25,-14.36 -27.65,-25.2 -6.39,-10.85 -9.59,-23.75 -9.59,-38.71 0,-19.51 4.12,-36.86 12.36,-52.04 8.24,-15.17 19.51,-27.15 33.82,-35.93 14.31,-8.79 30.47,-13.18 48.46,-13.18 15.18,0 28.3,2.88 39.36,8.62 11.06,5.75 19.68,14.04 25.86,24.88 6.18,10.84 9.26,23.85 9.26,39.03 0,3.47 -0.21,6.99 -0.65,10.57 -0.43,3.58 -0.97,6.99 -1.62,10.25l-149.94 0 2.93 -17.24 136.28 0 -9.44 6.5c2.17,-13.66 1.2,-25.15 -2.92,-34.47 -4.12,-9.33 -10.47,-16.43 -19.03,-21.3 -8.57,-4.88 -18.81,-7.32 -30.74,-7.32 -13.87,0 -26.23,3.41 -37.07,10.24 -10.84,6.83 -19.3,16.26 -25.37,28.3 -6.07,12.03 -9.11,26.07 -9.11,42.12 0,17.13 4.93,30.3 14.8,39.51 9.87,9.22 24.66,13.83 44.4,13.83 11.49,0 22.11,-1.9 31.87,-5.7 9.76,-3.79 17.78,-9.05 24.07,-15.77l10.4 16.59c-8.02,8.02 -18.05,14.25 -30.08,18.7 -12.03,4.44 -24.77,6.67 -38.22,6.67zm112.36 63.09c-8.02,0 -15.72,-1.35 -23.09,-4.06 -7.37,-2.71 -13.22,-6.45 -17.56,-11.22l12.36 -16.92c3.68,3.91 8.02,6.94 13.01,9.11 4.99,2.17 10.62,3.25 16.91,3.25 7.37,0 14.15,-2 20.33,-6.01 6.18,-4.02 12.63,-11.22 19.35,-21.63l17.24 -26.35 2.93 -3.25 101.47 -158.39 23.74 0 -124.89 192.87c-7.15,10.84 -13.88,19.35 -20.16,25.53 -6.29,6.18 -12.74,10.57 -19.36,13.17 -6.61,2.6 -14.04,3.9 -22.28,3.9zm54.65 -59.84l-43.91 -175.63 23.42 0 38.37 156.76 -17.88 18.87zm207.65 -3.25c-15.83,0 -29.54,-2.99 -41.14,-8.95 -11.6,-5.96 -20.6,-14.36 -27,-25.2 -6.39,-10.85 -9.59,-23.64 -9.59,-38.38 0,-19.52 4.23,-36.92 12.68,-52.2 8.46,-15.29 20.17,-27.32 35.13,-36.1 14.96,-8.79 31.98,-13.18 51.06,-13.18 15.83,0 29.55,2.93 41.15,8.78 11.6,5.86 20.59,14.21 26.99,25.05 6.4,10.84 9.6,23.63 9.6,38.38 0,19.51 -4.23,36.91 -12.69,52.2 -8.46,15.28 -20.11,27.37 -34.96,36.26 -14.85,8.89 -31.93,13.34 -51.23,13.34zm1.63 -20.49c14.31,0 27.05,-3.42 38.21,-10.25 11.17,-6.83 19.95,-16.32 26.35,-28.46 6.4,-12.14 9.59,-25.91 9.59,-41.3 0,-16.92 -4.93,-30.03 -14.8,-39.36 -9.86,-9.32 -23.68,-13.98 -41.46,-13.98 -14.1,0 -26.78,3.47 -38.06,10.41 -11.27,6.93 -20.11,16.42 -26.5,28.45 -6.4,12.04 -9.6,25.86 -9.6,41.47 0,16.7 4.93,29.71 14.8,39.03 9.87,9.32 23.69,13.99 41.47,13.99zm249.62 -153.52c15.39,0 28.02,2.98 37.89,8.95 9.86,5.96 16.69,14.58 20.49,25.85 3.79,11.28 4.06,24.72 0.81,40.33l-19.51 97.25 -23.09 0 19.51 -97.57c3.47,-16.91 1.68,-30.14 -5.37,-39.68 -7.04,-9.54 -19.46,-14.31 -37.24,-14.31 -18.21,0 -33.33,4.99 -45.37,14.96 -12.03,9.97 -20.11,24.93 -24.23,44.88l-18.21 91.72 -23.09 0 33.82 -170.75 22.12 0 -9.76 49.11 -4.88 -8.46c8.24,-14.74 18.92,-25.47 32.04,-32.19 13.12,-6.73 27.81,-10.09 44.07,-10.09zm181.31 174.01c-14.53,0 -27.43,-2.93 -38.7,-8.79 -11.28,-5.85 -20.06,-14.2 -26.35,-25.04 -6.29,-10.84 -9.43,-23.74 -9.43,-38.7 0,-14.53 2.39,-27.97 7.16,-40.33 4.77,-12.36 11.49,-23.15 20.16,-32.36 8.67,-9.22 18.92,-16.32 30.74,-21.31 11.81,-4.98 24.66,-7.48 38.54,-7.48 14.96,0 27.64,2.66 38.05,7.97 10.41,5.31 18.43,13.01 24.07,23.09 5.63,10.09 8.45,22.28 8.45,36.59 0,15.4 -2.11,29.6 -6.34,42.61 -4.23,13.01 -10.46,24.28 -18.7,33.82 -8.24,9.54 -18.05,16.92 -29.43,22.12 -11.39,5.2 -24.13,7.81 -38.22,7.81zm4.88 -20.49c14.31,0 27.05,-3.42 38.21,-10.25 11.17,-6.83 19.95,-16.32 26.35,-28.46 6.4,-12.14 9.59,-25.91 9.59,-41.3 0,-16.92 -4.93,-30.03 -14.8,-39.36 -9.86,-9.32 -23.68,-13.98 -41.46,-13.98 -14.1,0 -26.78,3.47 -38.06,10.41 -11.27,6.93 -20.11,16.42 -26.5,28.45 -6.4,12.04 -9.6,25.86 -9.6,41.47 0,16.7 4.93,29.71 14.8,39.03 9.87,9.32 23.69,13.99 41.47,13.99zm56.27 18.86l9.75 -49.11 9.76 -34.48 3.25 -35.77 24.39 -121.97 23.1 0 -48.14 241.33 -22.11 0zm183.74 0l48.13 -241.33 23.09 0 -48.13 241.33 -23.09 0zm93.5 0l33.82 -170.75 23.09 0 -33.82 170.75 -23.09 0zm55.29 -208.48c-4.56,0 -8.3,-1.52 -11.22,-4.55 -2.93,-3.04 -4.39,-6.62 -4.39,-10.74 0,-4.77 1.68,-8.89 5.04,-12.35 3.36,-3.47 7.64,-5.21 12.84,-5.21 4.56,0 8.35,1.41 11.39,4.23 3.03,2.82 4.55,6.4 4.55,10.73 0,5.21 -1.73,9.49 -5.2,12.85 -3.47,3.36 -7.81,5.04 -13.01,5.04zm281.49 36.1c15.39,0 27.91,2.98 37.56,8.95 9.65,5.96 16.32,14.58 20,25.85 3.69,11.28 3.91,24.72 0.65,40.33l-19.51 97.25 -23.09 0 19.51 -97.57c3.47,-16.91 1.9,-30.14 -4.71,-39.68 -6.62,-9.54 -18.6,-14.31 -35.94,-14.31 -17.13,0 -31.5,4.77 -43.1,14.31 -11.6,9.54 -19.35,23.85 -23.25,42.93l-18.87 94.32 -23.09 0 19.52 -97.57c3.47,-16.91 1.84,-30.14 -4.88,-39.68 -6.72,-9.54 -18.65,-14.31 -35.78,-14.31 -17.56,0 -32.09,4.99 -43.58,14.96 -11.49,9.97 -19.3,24.93 -23.42,44.88l-18.21 91.72 -23.09 0 33.82 -170.75 22.12 0 -9.76 49.11 -4.88 -8.46c8.24,-14.74 18.65,-25.47 31.22,-32.19 12.58,-6.73 26.78,-10.09 42.61,-10.09 11.93,0 22.17,2.01 30.74,6.02 8.56,4.01 15.28,9.87 20.16,17.56 4.88,7.7 7.54,16.86 7.97,27.49l-12.03 -2.61c8.45,-16.26 19.67,-28.4 33.66,-36.42 13.98,-8.03 29.87,-12.04 47.65,-12.04zm107.81 172.38l33.82 -170.75 23.09 0 -33.82 170.75 -23.09 0zm55.29 -208.48c-4.56,0 -8.3,-1.52 -11.22,-4.55 -2.93,-3.04 -4.39,-6.62 -4.39,-10.74 0,-4.77 1.68,-8.89 5.04,-12.35 3.36,-3.47 7.64,-5.21 12.84,-5.21 4.56,0 8.35,1.41 11.39,4.23 3.03,2.82 4.55,6.4 4.55,10.73 0,5.21 -1.73,9.49 -5.2,12.85 -3.47,3.36 -7.81,5.04 -13.01,5.04zm92.52 210.11c-9.76,0 -18.1,-2.12 -25.04,-6.35 -6.94,-4.22 -11.76,-10.24 -14.48,-18.05 -2.71,-7.8 -2.98,-17.13 -0.81,-27.97l31.22 -157.74 23.1 0 -31.23 156.77c-2.16,10.62 -1.35,18.86 2.44,24.72 3.8,5.85 10.79,8.78 20.98,8.78 4.77,0 9.43,-0.71 13.99,-2.12 4.55,-1.41 8.67,-3.63 12.36,-6.66l5.52 17.56c-5.42,4.12 -11.49,6.99 -18.21,8.62 -6.72,1.62 -13.33,2.44 -19.84,2.44zm-50.74 -153.19l3.58 -19.19 105.7 0 -3.9 19.19 -105.38 0z"/>
    <path class="fil0" d="M7568.26 3362.77c-13.88,0 -27,-1.96 -39.36,-5.86 -12.36,-3.9 -21.9,-8.89 -28.62,-14.96l11.06 -18.21c6.51,5.85 15.07,10.46 25.69,13.82 10.63,3.36 21.8,5.04 33.5,5.04 16.27,0 28.79,-2.71 37.57,-8.13 8.78,-5.42 13.17,-12.9 13.17,-22.44 0,-6.51 -2.33,-11.44 -6.99,-14.8 -4.66,-3.36 -10.68,-5.96 -18.05,-7.81 -7.37,-1.84 -15.18,-3.63 -23.42,-5.36 -8.24,-1.74 -16.04,-3.96 -23.42,-6.67 -7.37,-2.71 -13.38,-6.88 -18.05,-12.52 -4.66,-5.64 -6.99,-13.23 -6.99,-22.77 0,-10.84 3.09,-20.27 9.27,-28.29 6.18,-8.03 14.8,-14.21 25.86,-18.54 11.05,-4.34 24.06,-6.51 39.03,-6.51 10.84,0 21.57,1.41 32.19,4.23 10.63,2.82 19.19,6.72 25.7,11.71l-9.76 18.54c-6.72,-5.21 -14.53,-8.95 -23.42,-11.22 -8.89,-2.28 -17.78,-3.42 -26.67,-3.42 -15.82,0 -28.02,2.88 -36.59,8.62 -8.56,5.75 -12.84,13.28 -12.84,22.61 0,6.5 2.33,11.49 6.99,14.96 4.66,3.47 10.68,6.18 18.05,8.13 7.37,1.95 15.23,3.74 23.58,5.36 8.35,1.63 16.15,3.85 23.42,6.67 7.26,2.82 13.22,6.89 17.89,12.2 4.66,5.31 6.99,12.74 6.99,22.28 0,11.27 -3.15,20.87 -9.43,28.78 -6.29,7.91 -15.13,13.99 -26.51,18.21 -11.38,4.23 -24.66,6.35 -39.84,6.35z"/>
   </g>
  </g>
 </g>
</svg>
